<?xml version="1.0" encoding="UTF-8" standalone="no"?>
<!DOCTYPE svg PUBLIC "-//W3C//DTD SVG 1.1//EN"
 "http://www.w3.org/Graphics/SVG/1.1/DTD/svg11.dtd">
<!-- Generated by graphviz version 2.43.0 (0)
 -->
<!-- Title: %3 Pages: 1 -->
<svg width="1346pt" height="704pt"
 viewBox="0.00 0.00 1345.50 704.00" xmlns="http://www.w3.org/2000/svg" xmlns:xlink="http://www.w3.org/1999/xlink">
<g id="graph0" class="graph" transform="scale(1 1) rotate(0) translate(4 700)">
<title>%3</title>
<polygon fill="white" stroke="transparent" points="-4,4 -4,-700 1341.5,-700 1341.5,4 -4,4"/>
<text text-anchor="middle" x="668.75" y="-9.2" font-family="Times,serif" font-size="16.00">Workflow Diagram</text>
<g id="clust1" class="cluster">
<title>cluster_b&#39;d29ya2Zsb3ctZ2VuZXJhdGUtY2ktZG9jdW1lbnRhdGlvbi55bWw=&#39;</title>
<polygon fill="none" stroke="#47c507" stroke-width="4" points="8,-98 8,-688 1054,-688 1054,-98 8,-98"/>
<text text-anchor="middle" x="531" y="-671.2" font-family="Times,serif" font-size="16.00">Workflow</text>
</g>
<!-- b&#39;d29ya2Zsb3ctZ2VuZXJhdGUtY2ktZG9jdW1lbnRhdGlvbi55bWw=&#39; -->
<g id="node1" class="node">
<title>b&#39;d29ya2Zsb3ctZ2VuZXJhdGUtY2ktZG9jdW1lbnRhdGlvbi55bWw=&#39;</title>
<polygon fill="#c3fca6" stroke="#47c507" stroke-width="4" points="837.5,-612 472.5,-612 472.5,-548 837.5,-548 837.5,-612"/>
<polygon fill="none" stroke="#47c507" points="484,-581 484,-605 827,-605 827,-581 484,-581"/>
<text text-anchor="start" x="575" y="-590.2" font-family="Times,serif" font-weight="bold" font-size="16.00">WORKFLOW</text>
<text text-anchor="start" x="690" y="-590.2" font-family="Times,serif" font-size="16.00"> </text>
<text text-anchor="start" x="696" y="-590.2" font-family="Times,serif" font-style="italic" font-size="16.00">yaml</text>
<polygon fill="none" stroke="#47c507" points="484,-555 484,-579 827,-579 827,-555 484,-555"/>
<text text-anchor="start" x="487" y="-563.2" font-family="Times,serif" font-size="16.00">workflow&#45;generate&#45;ci&#45;documentation.yml</text>
<polygon fill="none" stroke="#47c507" points="480.5,-552 480.5,-608 829.5,-608 829.5,-552 480.5,-552"/>
</g>
<!-- b&#39;YidkMjl5YTJac2IzY3RaMlZ1WlhKaGRHVXRZMmt0Wkc5amRXMWxiblJoZEdsdmJpNTViV3c9J3VwZGF0ZV9jaV9kb2N1bWVudGF0aW9u&#39; -->
<g id="node2" class="node">
<title>b&#39;YidkMjl5YTJac2IzY3RaMlZ1WlhKaGRHVXRZMmt0Wkc5amRXMWxiblJoZEdsdmJpNTViV3c9J3VwZGF0ZV9jaV9kb2N1bWVudGF0aW9u&#39;</title>
<polygon fill="#ffc355" stroke="#cc8400" stroke-width="4" points="821,-512 489,-512 489,-448 821,-448 821,-512"/>
<polygon fill="none" stroke="#cc8400" points="500,-481 500,-505 810,-505 810,-481 500,-481"/>
<text text-anchor="start" x="623.5" y="-490.2" font-family="Times,serif" font-weight="bold" font-size="16.00">JOB</text>
<text text-anchor="start" x="659.5" y="-490.2" font-family="Times,serif" font-size="16.00"> </text>
<text text-anchor="start" x="665.5" y="-490.2" font-family="Times,serif" font-style="italic" font-size="16.00">na</text>
<polygon fill="none" stroke="#cc8400" points="500,-455 500,-479 810,-479 810,-455 500,-455"/>
<text text-anchor="start" x="544.5" y="-463.2" font-family="Times,serif" font-size="16.00">Update_Ci_Documentation</text>
<polygon fill="none" stroke="#cc8400" points="497,-452 497,-508 813,-508 813,-452 497,-452"/>
</g>
<!-- b&#39;d29ya2Zsb3ctZ2VuZXJhdGUtY2ktZG9jdW1lbnRhdGlvbi55bWw=&#39;&#45;&gt;b&#39;YidkMjl5YTJac2IzY3RaMlZ1WlhKaGRHVXRZMmt0Wkc5amRXMWxiblJoZEdsdmJpNTViV3c9J3VwZGF0ZV9jaV9kb2N1bWVudGF0aW9u&#39; -->
<g id="edge1" class="edge">
<title>b&#39;d29ya2Zsb3ctZ2VuZXJhdGUtY2ktZG9jdW1lbnRhdGlvbi55bWw=&#39;&#45;&gt;b&#39;YidkMjl5YTJac2IzY3RaMlZ1WlhKaGRHVXRZMmt0Wkc5amRXMWxiblJoZEdsdmJpNTViV3c9J3VwZGF0ZV9jaV9kb2N1bWVudGF0aW9u&#39;</title>
<path fill="none" stroke="#996300" stroke-width="4" d="M655,-547.99C655,-539.86 655,-530.96 655,-522.38"/>
<polygon fill="#996300" stroke="#996300" stroke-width="4" points="658.5,-522.14 655,-512.14 651.5,-522.14 658.5,-522.14"/>
</g>
<!-- b&#39;YidkMjl5YTJac2IzY3RaMlZ1WlhKaGRHVXRZMmt0Wkc5amRXMWxiblJoZEdsdmJpNTViV3c9J3VwZGF0ZV9jaV9kb2N1bWVudGF0aW9uX3N0ZXBfMQ==&#39; -->
<g id="node3" class="node">
<title>b&#39;YidkMjl5YTJac2IzY3RaMlZ1WlhKaGRHVXRZMmt0Wkc5amRXMWxiblJoZEdsdmJpNTViV3c9J3VwZGF0ZV9jaV9kb2N1bWVudGF0aW9uX3N0ZXBfMQ==&#39;</title>
<polygon fill="#fbe29d" stroke="#c49208" stroke-width="4" points="654,-412 322,-412 322,-348 654,-348 654,-412"/>
<polygon fill="none" stroke="#c49208" points="333,-381 333,-405 643,-405 643,-381 333,-381"/>
<text text-anchor="start" x="455.5" y="-390.2" font-family="Times,serif" font-weight="bold" font-size="16.00">STEP</text>
<text text-anchor="start" x="503.5" y="-390.2" font-family="Times,serif" font-size="16.00"> </text>
<text text-anchor="start" x="509.5" y="-390.2" font-family="Times,serif" font-style="italic" font-size="16.00">1</text>
<polygon fill="none" stroke="#c49208" points="333,-355 333,-379 643,-379 643,-355 333,-355"/>
<text text-anchor="start" x="372.5" y="-363.2" font-family="Times,serif" font-size="16.00">Generate Ci Documentation</text>
<polygon fill="none" stroke="#c49208" points="330,-352 330,-408 646,-408 646,-352 330,-352"/>
</g>
<!-- b&#39;YidkMjl5YTJac2IzY3RaMlZ1WlhKaGRHVXRZMmt0Wkc5amRXMWxiblJoZEdsdmJpNTViV3c9J3VwZGF0ZV9jaV9kb2N1bWVudGF0aW9u&#39;&#45;&gt;b&#39;YidkMjl5YTJac2IzY3RaMlZ1WlhKaGRHVXRZMmt0Wkc5amRXMWxiblJoZEdsdmJpNTViV3c9J3VwZGF0ZV9jaV9kb2N1bWVudGF0aW9uX3N0ZXBfMQ==&#39; -->
<g id="edge2" class="edge">
<title>b&#39;YidkMjl5YTJac2IzY3RaMlZ1WlhKaGRHVXRZMmt0Wkc5amRXMWxiblJoZEdsdmJpNTViV3c9J3VwZGF0ZV9jaV9kb2N1bWVudGF0aW9u&#39;&#45;&gt;b&#39;YidkMjl5YTJac2IzY3RaMlZ1WlhKaGRHVXRZMmt0Wkc5amRXMWxiblJoZEdsdmJpNTViV3c9J3VwZGF0ZV9jaV9kb2N1bWVudGF0aW9uX3N0ZXBfMQ==&#39;</title>
<path fill="none" stroke="#996300" stroke-width="4" d="M602.16,-447.99C585.56,-438.25 567.08,-427.41 549.91,-417.33"/>
<polygon fill="#996300" stroke="#996300" stroke-width="4" points="551.47,-414.19 541.07,-412.14 547.92,-420.22 551.47,-414.19"/>
</g>
<!-- b&#39;YidkMjl5YTJac2IzY3RaMlZ1WlhKaGRHVXRZMmt0Wkc5amRXMWxiblJoZEdsdmJpNTViV3c9J2NyZWF0ZV9wcg==&#39; -->
<g id="node6" class="node">
<title>b&#39;YidkMjl5YTJac2IzY3RaMlZ1WlhKaGRHVXRZMmt0Wkc5amRXMWxiblJoZEdsdmJpNTViV3c9J2NyZWF0ZV9wcg==&#39;</title>
<polygon fill="#ffc355" stroke="#cc8400" stroke-width="4" points="1004,-412 672,-412 672,-348 1004,-348 1004,-412"/>
<polygon fill="none" stroke="#cc8400" points="683,-381 683,-405 993,-405 993,-381 683,-381"/>
<text text-anchor="start" x="806.5" y="-390.2" font-family="Times,serif" font-weight="bold" font-size="16.00">JOB</text>
<text text-anchor="start" x="842.5" y="-390.2" font-family="Times,serif" font-size="16.00"> </text>
<text text-anchor="start" x="848.5" y="-390.2" font-family="Times,serif" font-style="italic" font-size="16.00">na</text>
<polygon fill="none" stroke="#cc8400" points="683,-355 683,-379 993,-379 993,-355 683,-355"/>
<text text-anchor="start" x="797" y="-363.2" font-family="Times,serif" font-size="16.00">Create_Pr</text>
<polygon fill="none" stroke="#cc8400" points="680,-352 680,-408 996,-408 996,-352 680,-352"/>
</g>
<!-- b&#39;YidkMjl5YTJac2IzY3RaMlZ1WlhKaGRHVXRZMmt0Wkc5amRXMWxiblJoZEdsdmJpNTViV3c9J3VwZGF0ZV9jaV9kb2N1bWVudGF0aW9u&#39;&#45;&gt;b&#39;YidkMjl5YTJac2IzY3RaMlZ1WlhKaGRHVXRZMmt0Wkc5amRXMWxiblJoZEdsdmJpNTViV3c9J2NyZWF0ZV9wcg==&#39; -->
<g id="edge5" class="edge">
<title>b&#39;YidkMjl5YTJac2IzY3RaMlZ1WlhKaGRHVXRZMmt0Wkc5amRXMWxiblJoZEdsdmJpNTViV3c9J3VwZGF0ZV9jaV9kb2N1bWVudGF0aW9u&#39;&#45;&gt;b&#39;YidkMjl5YTJac2IzY3RaMlZ1WlhKaGRHVXRZMmt0Wkc5amRXMWxiblJoZEdsdmJpNTViV3c9J2NyZWF0ZV9wcg==&#39;</title>
<path fill="none" stroke="#996300" stroke-width="4" d="M712.9,-447.99C731.34,-438.12 751.9,-427.11 770.93,-416.92"/>
<polygon fill="#996300" stroke="#996300" stroke-width="4" points="772.68,-419.95 779.85,-412.14 769.38,-413.78 772.68,-419.95"/>
</g>
<!-- b&#39;YidkMjl5YTJac2IzY3RaMlZ1WlhKaGRHVXRZMmt0Wkc5amRXMWxiblJoZEdsdmJpNTViV3c9J3VwZGF0ZV9jaV9kb2N1bWVudGF0aW9uX3N0ZXBfMg==&#39; -->
<g id="node4" class="node">
<title>b&#39;YidkMjl5YTJac2IzY3RaMlZ1WlhKaGRHVXRZMmt0Wkc5amRXMWxiblJoZEdsdmJpNTViV3c9J3VwZGF0ZV9jaV9kb2N1bWVudGF0aW9uX3N0ZXBfMg==&#39;</title>
<polygon fill="#fbe29d" stroke="#c49208" stroke-width="4" points="654,-312 58,-312 58,-248 654,-248 654,-312"/>
<polygon fill="none" stroke="#c49208" points="69,-281 69,-305 643,-305 643,-281 69,-281"/>
<text text-anchor="start" x="323.5" y="-290.2" font-family="Times,serif" font-weight="bold" font-size="16.00">STEP</text>
<text text-anchor="start" x="371.5" y="-290.2" font-family="Times,serif" font-size="16.00"> </text>
<text text-anchor="start" x="377.5" y="-290.2" font-family="Times,serif" font-style="italic" font-size="16.00">2</text>
<polygon fill="none" stroke="#c49208" points="69,-255 69,-279 643,-279 643,-255 69,-255"/>
<text text-anchor="start" x="72" y="-263.2" font-family="Times,serif" font-size="16.00">Make The Workflow Markdown File A Readme.Md For The Directory.</text>
<polygon fill="none" stroke="#c49208" points="66,-252 66,-308 646,-308 646,-252 66,-252"/>
</g>
<!-- b&#39;YidkMjl5YTJac2IzY3RaMlZ1WlhKaGRHVXRZMmt0Wkc5amRXMWxiblJoZEdsdmJpNTViV3c9J3VwZGF0ZV9jaV9kb2N1bWVudGF0aW9uX3N0ZXBfMQ==&#39;&#45;&gt;b&#39;YidkMjl5YTJac2IzY3RaMlZ1WlhKaGRHVXRZMmt0Wkc5amRXMWxiblJoZEdsdmJpNTViV3c9J3VwZGF0ZV9jaV9kb2N1bWVudGF0aW9uX3N0ZXBfMg==&#39; -->
<g id="edge3" class="edge">
<title>b&#39;YidkMjl5YTJac2IzY3RaMlZ1WlhKaGRHVXRZMmt0Wkc5amRXMWxiblJoZEdsdmJpNTViV3c9J3VwZGF0ZV9jaV9kb2N1bWVudGF0aW9uX3N0ZXBfMQ==&#39;&#45;&gt;b&#39;YidkMjl5YTJac2IzY3RaMlZ1WlhKaGRHVXRZMmt0Wkc5amRXMWxiblJoZEdsdmJpNTViV3c9J3VwZGF0ZV9jaV9kb2N1bWVudGF0aW9uX3N0ZXBfMg==&#39;</title>
<path fill="none" stroke="#996300" stroke-width="4" d="M446.23,-347.99C433.47,-338.52 419.31,-328 406.06,-318.17"/>
<polygon fill="#996300" stroke="#996300" stroke-width="4" points="408.06,-315.29 397.95,-312.14 403.89,-320.91 408.06,-315.29"/>
</g>
<!-- b&#39;Q29tcHRvbi1OSVNUL0luc3BlY3RvckB2MQ==&#39; -->
<g id="node9" class="node">
<title>b&#39;Q29tcHRvbi1OSVNUL0luc3BlY3RvckB2MQ==&#39;</title>
<polygon fill="#a6e6fc" stroke="#0795c5" stroke-width="4" points="1337.5,-312 1104.5,-312 1104.5,-248 1337.5,-248 1337.5,-312"/>
<polygon fill="none" stroke="#0795c5" points="1116,-281 1116,-305 1327,-305 1327,-281 1116,-281"/>
<text text-anchor="start" x="1139" y="-290.2" font-family="Times,serif" font-weight="bold" font-size="16.00">ACTION</text>
<text text-anchor="start" x="1213" y="-290.2" font-family="Times,serif" font-size="16.00"> </text>
<text text-anchor="start" x="1219" y="-290.2" font-family="Times,serif" font-style="italic" font-size="16.00">repository</text>
<polygon fill="none" stroke="#0795c5" points="1116,-255 1116,-279 1327,-279 1327,-255 1116,-255"/>
<text text-anchor="start" x="1119" y="-263.2" font-family="Times,serif" font-size="16.00">Compton&#45;NIST/Inspector</text>
<polygon fill="none" stroke="#0795c5" points="1112.5,-252 1112.5,-308 1329.5,-308 1329.5,-252 1112.5,-252"/>
</g>
<!-- b&#39;YidkMjl5YTJac2IzY3RaMlZ1WlhKaGRHVXRZMmt0Wkc5amRXMWxiblJoZEdsdmJpNTViV3c9J3VwZGF0ZV9jaV9kb2N1bWVudGF0aW9uX3N0ZXBfMQ==&#39;&#45;&gt;b&#39;Q29tcHRvbi1OSVNUL0luc3BlY3RvckB2MQ==&#39; -->
<g id="edge8" class="edge">
<title>b&#39;YidkMjl5YTJac2IzY3RaMlZ1WlhKaGRHVXRZMmt0Wkc5amRXMWxiblJoZEdsdmJpNTViV3c9J3VwZGF0ZV9jaV9kb2N1bWVudGF0aW9uX3N0ZXBfMQ==&#39;&#45;&gt;b&#39;Q29tcHRvbi1OSVNUL0luc3BlY3RvckB2MQ==&#39;</title>
<path fill="none" stroke="#002481" stroke-width="3" d="M654.21,-349.21C657.16,-348.79 660.09,-348.39 663,-348 837.72,-324.6 883.43,-336.5 1058,-312 1066.54,-310.8 1075.31,-309.46 1084.15,-308.02"/>
<polygon fill="#002481" stroke="#002481" stroke-width="3" points="1085.59,-314.88 1104.14,-304.64 1083.26,-301.07 1085.59,-314.88"/>
</g>
<!-- b&#39;YidkMjl5YTJac2IzY3RaMlZ1WlhKaGRHVXRZMmt0Wkc5amRXMWxiblJoZEdsdmJpNTViV3c9J3VwZGF0ZV9jaV9kb2N1bWVudGF0aW9uX3N0ZXBfMw==&#39; -->
<g id="node5" class="node">
<title>b&#39;YidkMjl5YTJac2IzY3RaMlZ1WlhKaGRHVXRZMmt0Wkc5amRXMWxiblJoZEdsdmJpNTViV3c9J3VwZGF0ZV9jaV9kb2N1bWVudGF0aW9uX3N0ZXBfMw==&#39;</title>
<polygon fill="#fbe29d" stroke="#c49208" stroke-width="4" points="612,-212 100,-212 100,-148 612,-148 612,-212"/>
<polygon fill="none" stroke="#c49208" points="111,-181 111,-205 601,-205 601,-181 111,-181"/>
<text text-anchor="start" x="323.5" y="-190.2" font-family="Times,serif" font-weight="bold" font-size="16.00">STEP</text>
<text text-anchor="start" x="371.5" y="-190.2" font-family="Times,serif" font-size="16.00"> </text>
<text text-anchor="start" x="377.5" y="-190.2" font-family="Times,serif" font-style="italic" font-size="16.00">3</text>
<polygon fill="none" stroke="#c49208" points="111,-155 111,-179 601,-179 601,-155 111,-155"/>
<text text-anchor="start" x="114" y="-163.2" font-family="Times,serif" font-size="16.00">Commit Documentation Result (Documents And Diagrams)</text>
<polygon fill="none" stroke="#c49208" points="108,-152 108,-208 604,-208 604,-152 108,-152"/>
</g>
<!-- b&#39;YidkMjl5YTJac2IzY3RaMlZ1WlhKaGRHVXRZMmt0Wkc5amRXMWxiblJoZEdsdmJpNTViV3c9J3VwZGF0ZV9jaV9kb2N1bWVudGF0aW9uX3N0ZXBfMg==&#39;&#45;&gt;b&#39;YidkMjl5YTJac2IzY3RaMlZ1WlhKaGRHVXRZMmt0Wkc5amRXMWxiblJoZEdsdmJpNTViV3c9J3VwZGF0ZV9jaV9kb2N1bWVudGF0aW9uX3N0ZXBfMw==&#39; -->
<g id="edge4" class="edge">
<title>b&#39;YidkMjl5YTJac2IzY3RaMlZ1WlhKaGRHVXRZMmt0Wkc5amRXMWxiblJoZEdsdmJpNTViV3c9J3VwZGF0ZV9jaV9kb2N1bWVudGF0aW9uX3N0ZXBfMg==&#39;&#45;&gt;b&#39;YidkMjl5YTJac2IzY3RaMlZ1WlhKaGRHVXRZMmt0Wkc5amRXMWxiblJoZEdsdmJpNTViV3c9J3VwZGF0ZV9jaV9kb2N1bWVudGF0aW9uX3N0ZXBfMw==&#39;</title>
<path fill="none" stroke="#996300" stroke-width="4" d="M356,-247.99C356,-239.86 356,-230.96 356,-222.38"/>
<polygon fill="#996300" stroke="#996300" stroke-width="4" points="359.5,-222.14 356,-212.14 352.5,-222.14 359.5,-222.14"/>
</g>
<!-- b&#39;c3RlZmFuendlaWZlbC9naXQtYXV0by1jb21taXQtYWN0aW9uQDNlYTZhZTE5MGJhZjQ4OWJhMDA3ZjdjOTI2MDhmMzNjZTIwZWYwNGE=&#39; -->
<g id="node10" class="node">
<title>b&#39;c3RlZmFuendlaWZlbC9naXQtYXV0by1jb21taXQtYWN0aW9uQDNlYTZhZTE5MGJhZjQ4OWJhMDA3ZjdjOTI2MDhmMzNjZTIwZWYwNGE=&#39;</title>
<polygon fill="#a6e6fc" stroke="#0795c5" stroke-width="4" points="520.5,-90 191.5,-90 191.5,-26 520.5,-26 520.5,-90"/>
<polygon fill="none" stroke="#0795c5" points="203,-59 203,-83 510,-83 510,-59 203,-59"/>
<text text-anchor="start" x="274" y="-68.2" font-family="Times,serif" font-weight="bold" font-size="16.00">ACTION</text>
<text text-anchor="start" x="348" y="-68.2" font-family="Times,serif" font-size="16.00"> </text>
<text text-anchor="start" x="354" y="-68.2" font-family="Times,serif" font-style="italic" font-size="16.00">repository</text>
<polygon fill="none" stroke="#0795c5" points="203,-33 203,-57 510,-57 510,-33 203,-33"/>
<text text-anchor="start" x="206" y="-41.2" font-family="Times,serif" font-size="16.00">stefanzweifel/git&#45;auto&#45;commit&#45;action</text>
<polygon fill="none" stroke="#0795c5" points="199.5,-30 199.5,-86 512.5,-86 512.5,-30 199.5,-30"/>
</g>
<!-- b&#39;YidkMjl5YTJac2IzY3RaMlZ1WlhKaGRHVXRZMmt0Wkc5amRXMWxiblJoZEdsdmJpNTViV3c9J3VwZGF0ZV9jaV9kb2N1bWVudGF0aW9uX3N0ZXBfMw==&#39;&#45;&gt;b&#39;c3RlZmFuendlaWZlbC9naXQtYXV0by1jb21taXQtYWN0aW9uQDNlYTZhZTE5MGJhZjQ4OWJhMDA3ZjdjOTI2MDhmMzNjZTIwZWYwNGE=&#39; -->
<g id="edge9" class="edge">
<title>b&#39;YidkMjl5YTJac2IzY3RaMlZ1WlhKaGRHVXRZMmt0Wkc5amRXMWxiblJoZEdsdmJpNTViV3c9J3VwZGF0ZV9jaV9kb2N1bWVudGF0aW9uX3N0ZXBfMw==&#39;&#45;&gt;b&#39;c3RlZmFuendlaWZlbC9naXQtYXV0by1jb21taXQtYWN0aW9uQDNlYTZhZTE5MGJhZjQ4OWJhMDA3ZjdjOTI2MDhmMzNjZTIwZWYwNGE=&#39;</title>
<path fill="none" stroke="#002481" stroke-width="3" d="M356,-147.78C356,-136.4 356,-123.19 356,-110.51"/>
<polygon fill="#002481" stroke="#002481" stroke-width="3" points="363,-110.06 356,-90.06 349,-110.06 363,-110.06"/>
</g>
<!-- b&#39;YidkMjl5YTJac2IzY3RaMlZ1WlhKaGRHVXRZMmt0Wkc5amRXMWxiblJoZEdsdmJpNTViV3c9J2NyZWF0ZV9wcl9zdGVwXzE=&#39; -->
<g id="node7" class="node">
<title>b&#39;YidkMjl5YTJac2IzY3RaMlZ1WlhKaGRHVXRZMmt0Wkc5amRXMWxiblJoZEdsdmJpNTViV3c9J2NyZWF0ZV9wcl9zdGVwXzE=&#39;</title>
<polygon fill="#fbe29d" stroke="#c49208" stroke-width="4" points="1004,-312 672,-312 672,-248 1004,-248 1004,-312"/>
<polygon fill="none" stroke="#c49208" points="683,-281 683,-305 993,-305 993,-281 683,-281"/>
<text text-anchor="start" x="805.5" y="-290.2" font-family="Times,serif" font-weight="bold" font-size="16.00">STEP</text>
<text text-anchor="start" x="853.5" y="-290.2" font-family="Times,serif" font-size="16.00"> </text>
<text text-anchor="start" x="859.5" y="-290.2" font-family="Times,serif" font-style="italic" font-size="16.00">1</text>
<polygon fill="none" stroke="#c49208" points="683,-255 683,-279 993,-279 993,-255 683,-255"/>
<text text-anchor="start" x="729.5" y="-263.2" font-family="Times,serif" font-size="16.00">Check Out The Repository</text>
<polygon fill="none" stroke="#c49208" points="680,-252 680,-308 996,-308 996,-252 680,-252"/>
</g>
<!-- b&#39;YidkMjl5YTJac2IzY3RaMlZ1WlhKaGRHVXRZMmt0Wkc5amRXMWxiblJoZEdsdmJpNTViV3c9J2NyZWF0ZV9wcg==&#39;&#45;&gt;b&#39;YidkMjl5YTJac2IzY3RaMlZ1WlhKaGRHVXRZMmt0Wkc5amRXMWxiblJoZEdsdmJpNTViV3c9J2NyZWF0ZV9wcl9zdGVwXzE=&#39; -->
<g id="edge6" class="edge">
<title>b&#39;YidkMjl5YTJac2IzY3RaMlZ1WlhKaGRHVXRZMmt0Wkc5amRXMWxiblJoZEdsdmJpNTViV3c9J2NyZWF0ZV9wcg==&#39;&#45;&gt;b&#39;YidkMjl5YTJac2IzY3RaMlZ1WlhKaGRHVXRZMmt0Wkc5amRXMWxiblJoZEdsdmJpNTViV3c9J2NyZWF0ZV9wcl9zdGVwXzE=&#39;</title>
<path fill="none" stroke="#996300" stroke-width="4" d="M838,-347.99C838,-339.86 838,-330.96 838,-322.38"/>
<polygon fill="#996300" stroke="#996300" stroke-width="4" points="841.5,-322.14 838,-312.14 834.5,-322.14 841.5,-322.14"/>
</g>
<!-- b&#39;YidkMjl5YTJac2IzY3RaMlZ1WlhKaGRHVXRZMmt0Wkc5amRXMWxiblJoZEdsdmJpNTViV3c9J2NyZWF0ZV9wcl9zdGVwXzI=&#39; -->
<g id="node8" class="node">
<title>b&#39;YidkMjl5YTJac2IzY3RaMlZ1WlhKaGRHVXRZMmt0Wkc5amRXMWxiblJoZEdsdmJpNTViV3c9J2NyZWF0ZV9wcl9zdGVwXzI=&#39;</title>
<polygon fill="#fbe29d" stroke="#c49208" stroke-width="4" points="1004,-212 672,-212 672,-148 1004,-148 1004,-212"/>
<polygon fill="none" stroke="#c49208" points="683,-181 683,-205 993,-205 993,-181 683,-181"/>
<text text-anchor="start" x="805.5" y="-190.2" font-family="Times,serif" font-weight="bold" font-size="16.00">STEP</text>
<text text-anchor="start" x="853.5" y="-190.2" font-family="Times,serif" font-size="16.00"> </text>
<text text-anchor="start" x="859.5" y="-190.2" font-family="Times,serif" font-style="italic" font-size="16.00">2</text>
<polygon fill="none" stroke="#c49208" points="683,-155 683,-179 993,-179 993,-155 683,-155"/>
<text text-anchor="start" x="696" y="-163.2" font-family="Times,serif" font-size="16.00">Create Pull Request With Updates</text>
<polygon fill="none" stroke="#c49208" points="680,-152 680,-208 996,-208 996,-152 680,-152"/>
</g>
<!-- b&#39;YidkMjl5YTJac2IzY3RaMlZ1WlhKaGRHVXRZMmt0Wkc5amRXMWxiblJoZEdsdmJpNTViV3c9J2NyZWF0ZV9wcl9zdGVwXzE=&#39;&#45;&gt;b&#39;YidkMjl5YTJac2IzY3RaMlZ1WlhKaGRHVXRZMmt0Wkc5amRXMWxiblJoZEdsdmJpNTViV3c9J2NyZWF0ZV9wcl9zdGVwXzI=&#39; -->
<g id="edge7" class="edge">
<title>b&#39;YidkMjl5YTJac2IzY3RaMlZ1WlhKaGRHVXRZMmt0Wkc5amRXMWxiblJoZEdsdmJpNTViV3c9J2NyZWF0ZV9wcl9zdGVwXzE=&#39;&#45;&gt;b&#39;YidkMjl5YTJac2IzY3RaMlZ1WlhKaGRHVXRZMmt0Wkc5amRXMWxiblJoZEdsdmJpNTViV3c9J2NyZWF0ZV9wcl9zdGVwXzI=&#39;</title>
<path fill="none" stroke="#996300" stroke-width="4" d="M838,-247.99C838,-239.86 838,-230.96 838,-222.38"/>
<polygon fill="#996300" stroke="#996300" stroke-width="4" points="841.5,-222.14 838,-212.14 834.5,-222.14 841.5,-222.14"/>
</g>
<!-- b&#39;YWN0aW9ucy9jaGVja291dEB2Mw==&#39; -->
<g id="node11" class="node">
<title>b&#39;YWN0aW9ucy9jaGVja291dEB2Mw==&#39;</title>
<polygon fill="#a6e6fc" stroke="#0795c5" stroke-width="4" points="1316,-212 1104,-212 1104,-148 1316,-148 1316,-212"/>
<polygon fill="none" stroke="#0795c5" points="1115,-181 1115,-205 1305,-205 1305,-181 1115,-181"/>
<text text-anchor="start" x="1127.5" y="-190.2" font-family="Times,serif" font-weight="bold" font-size="16.00">ACTION</text>
<text text-anchor="start" x="1201.5" y="-190.2" font-family="Times,serif" font-size="16.00"> </text>
<text text-anchor="start" x="1207.5" y="-190.2" font-family="Times,serif" font-style="italic" font-size="16.00">repository</text>
<polygon fill="none" stroke="#0795c5" points="1115,-155 1115,-179 1305,-179 1305,-155 1115,-155"/>
<text text-anchor="start" x="1140" y="-163.2" font-family="Times,serif" font-size="16.00">actions/checkout</text>
<polygon fill="none" stroke="#0795c5" points="1112,-152 1112,-208 1308,-208 1308,-152 1112,-152"/>
</g>
<!-- b&#39;YidkMjl5YTJac2IzY3RaMlZ1WlhKaGRHVXRZMmt0Wkc5amRXMWxiblJoZEdsdmJpNTViV3c9J2NyZWF0ZV9wcl9zdGVwXzE=&#39;&#45;&gt;b&#39;YWN0aW9ucy9jaGVja291dEB2Mw==&#39; -->
<g id="edge10" class="edge">
<title>b&#39;YidkMjl5YTJac2IzY3RaMlZ1WlhKaGRHVXRZMmt0Wkc5amRXMWxiblJoZEdsdmJpNTViV3c9J2NyZWF0ZV9wcl9zdGVwXzE=&#39;&#45;&gt;b&#39;YWN0aW9ucy9jaGVja291dEB2Mw==&#39;</title>
<path fill="none" stroke="#002481" stroke-width="3" d="M955.7,-247.99C996.68,-237.2 1042.8,-225.05 1084.39,-214.09"/>
<polygon fill="#002481" stroke="#002481" stroke-width="3" points="1086.22,-220.85 1103.77,-208.98 1082.65,-207.31 1086.22,-220.85"/>
</g>
</g>
</svg>
